<?xml version="1.0" encoding="UTF-8"?>
<svg version="1.1" xmlns="http://www.w3.org/2000/svg" width="512" height="512">
<path d="M0 0 C7.36993867 5.00715102 11.90186946 12.85428343 13.6015625 21.59765625 C13.68938002 23.88958092 13.71921308 26.18393631 13.71508789 28.47753906 C13.71523392 29.16087311 13.71537994 29.84420715 13.7155304 30.54824829 C13.71483565 32.79912529 13.70706382 35.04991877 13.69921875 37.30078125 C13.69735301 38.86448115 13.69592984 40.42818163 13.69493103 41.99188232 C13.69111812 46.10182314 13.6812983 50.21172846 13.67022705 54.32165527 C13.65998657 58.51781738 13.65542776 62.71398524 13.65039062 66.91015625 C13.63967492 75.13933918 13.62261323 83.3684933 13.6015625 91.59765625 C14.21948166 91.31742615 14.83740082 91.03719604 15.4740448 90.74847412 C16.68995049 90.201539 16.68995049 90.201539 17.93041992 89.64355469 C19.13573616 89.09945953 19.13573616 89.09945953 20.36540222 88.54437256 C28.46323268 85.11601895 38.06661742 85.77285325 46.25390625 88.5625 C53.63871252 91.81869578 58.12309471 97.07151144 62.6015625 103.59765625 C63.59633636 104.93489324 64.59496253 106.26929851 65.6015625 107.59765625 C66.20484375 107.24832031 66.808125 106.89898437 67.4296875 106.5390625 C68.22890625 106.08402344 69.028125 105.62898438 69.8515625 105.16015625 C70.64046875 104.70769531 71.429375 104.25523437 72.2421875 103.7890625 C79.35602363 100.19681081 88.87662826 100.55047456 96.52734375 102.24609375 C105.1249034 105.37491017 111.09009904 111.07222293 115.7890625 118.80078125 C116.6015625 120.59765625 116.6015625 120.59765625 116.6015625 123.59765625 C117.45427734 123.09105469 117.45427734 123.09105469 118.32421875 122.57421875 C126.78950181 117.68442253 134.60615459 114.93113254 144.33984375 117.25 C154.36586377 120.48106869 160.76621723 126.32008322 165.6015625 135.59765625 C168.9391217 142.60653056 168.75022155 149.8408 168.74682617 157.44213867 C168.75186409 159.06553413 168.75186409 159.06553413 168.75700378 160.72172546 C168.76649794 164.29887036 168.76845682 167.87596828 168.76953125 171.453125 C168.77274733 173.95494099 168.77611166 176.45675679 168.77961731 178.95857239 C168.78560648 184.20993349 168.78750062 189.46128279 168.78686523 194.71264648 C168.78620263 201.394069 168.80035808 208.0753678 168.81763744 214.75677013 C168.82884424 219.93114185 168.83078172 225.10548838 168.83025551 230.27987099 C168.83142483 232.73986491 168.83578672 235.19985971 168.84358788 237.65984154 C168.94620748 273.39385897 168.94620748 273.39385897 164.4140625 289.22265625 C164.09260254 290.3832959 164.09260254 290.3832959 163.76464844 291.56738281 C158.5082023 309.81996453 150.0524177 326.20892475 137.6015625 340.59765625 C136.93898438 341.40460938 136.27640625 342.2115625 135.59375 343.04296875 C116.43062067 365.60030549 86.7299382 380.29910485 57.40625 383.00390625 C24.4084622 385.61419454 -6.4468558 376.1738536 -32.3984375 355.59765625 C-34.88374184 353.38184274 -37.16050204 351.05938526 -39.3984375 348.59765625 C-40.2028125 347.81390625 -41.0071875 347.03015625 -41.8359375 346.22265625 C-54.16842047 333.58938101 -62.6707974 319.30715916 -71.37939453 304.04882812 C-76.0729953 295.83998522 -80.90611603 287.72909294 -85.8359375 279.66015625 C-93.48743535 267.12589485 -101.01895874 254.52662672 -108.46972656 241.87158203 C-109.75858469 239.68378615 -111.04961175 237.49726661 -112.34277344 235.31201172 C-135.00327918 197.01702297 -135.00327918 197.01702297 -131.75 184.00390625 C-128.79598443 175.82355545 -124.17064219 169.83686754 -116.5234375 165.59765625 C-109.51394329 162.47880136 -104.1554627 162.82784941 -96.9609375 165.22265625 C-83.80344641 170.47467286 -73.1040835 179.43347579 -63.3984375 189.59765625 C-62.5115625 190.48453125 -61.6246875 191.37140625 -60.7109375 192.28515625 C-58.60677083 194.38932292 -56.50260417 196.49348958 -54.3984375 198.59765625 C-54.39697094 197.69043162 -54.39550438 196.783207 -54.39399338 195.84849072 C-54.35689858 173.74644675 -54.29784832 151.64455581 -54.21453476 129.54263592 C-54.17477073 118.85418645 -54.14236483 108.16581032 -54.12744141 97.47729492 C-54.11441125 88.15827766 -54.08741171 78.83942197 -54.04382443 69.52049571 C-54.02124037 64.58880327 -54.00552499 59.65730988 -54.00655365 54.72556114 C-54.00730206 50.0772889 -53.98927859 45.42945615 -53.95726967 40.78129768 C-53.9487976 39.08146547 -53.94700232 37.3815838 -53.95263481 35.68173981 C-53.98775702 23.44601599 -53.20925459 12.58521766 -44.3203125 3.31640625 C-31.61610265 -8.04508224 -14.35811027 -8.39505145 0 0 Z M-35.81856102 15.34215093 C-39.14614364 20.37561278 -40.11792668 24.10393936 -40.01075745 30.08758545 C-40.01629086 30.9042255 -40.02182427 31.72086556 -40.02752537 32.56225228 C-40.04003243 35.27867978 -40.01718111 37.99361824 -39.99438477 40.70996094 C-39.99628987 42.66522045 -40.00044791 44.62047887 -40.00668335 46.57572937 C-40.01545826 50.7757101 -40.00874995 54.97527703 -39.99002266 59.1752243 C-39.96090204 65.8140473 -39.96873038 72.45251469 -39.98191833 79.09136963 C-40.00256381 91.97866043 -39.98698447 104.86577841 -39.96644592 117.75305939 C-39.9412856 134.17177257 -39.92840269 150.59039061 -39.95640224 167.00910687 C-39.96636993 173.61149416 -39.95619517 180.21345556 -39.93049443 186.81579638 C-39.91834763 190.91646932 -39.92251416 195.01700836 -39.93107224 199.11768532 C-39.93160854 201.02206574 -39.92523772 202.92646221 -39.91153145 204.83079338 C-39.8937547 207.4261388 -39.9003761 210.02031311 -39.9131012 212.61566162 C-39.89634467 213.7514472 -39.89634467 213.7514472 -39.87924963 214.91017795 C-39.92058411 218.3508548 -40.16460056 220.27586904 -42.21148586 223.09262466 C-44.3984375 224.59765625 -44.3984375 224.59765625 -47.875 224.66015625 C-52.08482948 223.3906733 -53.22115358 222.11804786 -55.7734375 218.59765625 C-59.9396944 213.12322312 -64.45446593 208.36679189 -69.3984375 203.59765625 C-74.3984375 198.59765625 -74.3984375 198.59765625 -76.08984375 196.80078125 C-84.24746716 188.29707685 -94.76191955 179.25852509 -106.6484375 176.97265625 C-111.78542329 178.14015302 -114.51369367 181.24104904 -117.2734375 185.47265625 C-118.97518286 190.19972669 -119.32988837 193.44495614 -117.28808594 198.16381836 C-113.50377842 205.63738509 -109.40541496 212.8593282 -105.0859375 220.03515625 C-103.65962622 222.41947978 -102.23623783 224.80554542 -100.8125 227.19140625 C-100.26647881 228.10496132 -100.26647881 228.10496132 -99.70942688 229.03697205 C-97.17372532 233.28339215 -94.66418477 237.54438802 -92.171875 241.81640625 C-91.82511719 242.41075974 -91.47835937 243.00511322 -91.12109375 243.61747742 C-90.41967322 244.82002165 -89.71829792 246.02259226 -89.01696777 247.22518921 C-82.36980801 258.61798769 -75.59987874 269.92906703 -68.72094727 281.18334961 C-65.1257738 287.07085773 -61.57061681 292.97760759 -58.08984375 298.93359375 C-57.73603134 299.53744904 -57.38221893 300.14130432 -57.01768494 300.76345825 C-55.34057961 303.62651921 -53.67056154 306.49296394 -52.01342773 309.36767578 C-36.13466328 336.5249928 -13.34189378 357.47439481 17.38134766 366.07592773 C45.64194963 373.47689594 74.49451402 369.23959754 99.6015625 354.59765625 C126.48294281 338.3170724 143.63392868 312.97303275 151.7421875 282.8515625 C155.03308359 267.57346788 154.91215062 252.38142996 154.90234375 236.8203125 C154.90623737 234.2377465 154.9105734 231.65518113 154.91532898 229.07261658 C154.92275219 223.68762852 154.92266699 218.30271293 154.91723633 212.91772461 C154.91117388 206.7116761 154.92358349 200.505853 154.9448064 194.29984289 C154.96458544 188.29249887 154.96759273 182.28527259 154.96407127 176.27789116 C154.96458356 173.73623561 154.96980381 171.19457637 154.97988319 168.65294075 C154.99224121 165.10446889 154.98546144 161.55652033 154.97387695 158.00805664 C154.98152069 156.96634811 154.98916443 155.92463959 154.99703979 154.85136414 C154.94702045 147.90732898 154.34095298 141.81754465 149.6640625 136.3203125 C148.9834375 135.77246094 148.3028125 135.22460938 147.6015625 134.66015625 C146.9209375 134.09425781 146.2403125 133.52835937 145.5390625 132.9453125 C141.66785654 130.252639 138.19185129 130.22140307 133.6015625 130.59765625 C127.40751968 132.54872097 123.67038351 135.92099592 120.6015625 141.59765625 C119.54671639 144.76219459 119.43092657 147.14743095 119.35546875 150.47265625 C119.30616211 152.19742188 119.30616211 152.19742188 119.25585938 153.95703125 C119.19466386 156.38401929 119.13737175 158.8111089 119.08398438 161.23828125 C119.04982422 162.388125 119.01566406 163.53796875 118.98046875 164.72265625 C118.94288452 166.30433594 118.94288452 166.30433594 118.90454102 167.91796875 C118.6015625 170.59765625 118.6015625 170.59765625 116.6015625 173.59765625 C114.7265625 173.99609375 114.7265625 173.99609375 112.6015625 173.97265625 C111.9003125 173.98039063 111.1990625 173.988125 110.4765625 173.99609375 C108.6015625 173.59765625 108.6015625 173.59765625 106.6015625 170.59765625 C106.41985205 167.74345004 106.34864786 164.97879545 106.36328125 162.125 C106.34784763 160.40298704 106.331543 158.6809817 106.31445312 156.95898438 C106.29808185 154.25576894 106.28901515 151.55311385 106.29614258 148.84985352 C106.57905783 134.41838868 106.57905783 134.41838868 100.6015625 121.59765625 C96.12749996 117.23271719 92.09511342 115.29175628 85.8515625 115.09765625 C80.38281023 115.19102519 77.31193944 116.27881125 73.22265625 119.875 C67.51003015 125.94552557 66.45620111 131.33195563 66.35546875 139.53515625 C66.32254203 141.3346405 66.28933019 143.13411954 66.25585938 144.93359375 C66.20837036 147.77112388 66.16391106 150.60863119 66.12475586 153.44628906 C66.08510315 156.18446327 66.03355586 158.92221423 65.98046875 161.66015625 C65.9720546 162.5102124 65.96364044 163.36026855 65.95497131 164.23608398 C65.82827089 170.25759367 65.82827089 170.25759367 63.6015625 173.59765625 C61.7265625 173.9609375 61.7265625 173.9609375 59.6015625 173.91015625 C58.9003125 173.90628906 58.1990625 173.90242187 57.4765625 173.8984375 C55.6015625 173.59765625 55.6015625 173.59765625 53.6015625 171.59765625 C53.3500061 169.28500366 53.3500061 169.28500366 53.34619141 166.35693359 C53.33923248 165.26174408 53.33227356 164.16655457 53.32510376 163.03817749 C53.32610077 161.84866486 53.32709778 160.65915222 53.328125 159.43359375 C53.30782592 156.92447479 53.28697496 154.41536024 53.265625 151.90625 C53.24306564 147.94315887 53.22657374 143.98024212 53.22070312 140.01708984 C53.21115715 136.19726836 53.17733878 132.37823745 53.140625 128.55859375 C53.14819321 126.79254288 53.14819321 126.79254288 53.15591431 124.99081421 C53.0680179 117.60758284 52.44680317 111.72502033 47.18984985 106.08236694 C41.77509804 101.25699208 37.0919336 100.18004358 30.03125 100.34765625 C24.07060688 100.96097001 20.43760273 104.2432322 16.6015625 108.59765625 C14.01921514 112.28306387 13.22434178 114.75570121 13.20092773 119.24243164 C13.18758896 120.35030533 13.17425018 121.45817902 13.1605072 122.59962463 C13.16039139 123.78620163 13.16027557 124.97277863 13.16015625 126.1953125 C13.14694839 127.42172958 13.13374054 128.64814667 13.12013245 129.91172791 C13.07924446 133.82789391 13.0575641 137.74382507 13.0390625 141.66015625 C13.01528557 145.57998665 12.98718729 149.49959553 12.94728088 153.41929626 C12.92290412 155.85766379 12.90806169 158.29614898 12.90367126 160.7346344 C12.89348465 161.83935593 12.88329803 162.94407745 12.87280273 164.08227539 C12.86852768 165.0531459 12.86425262 166.02401642 12.85984802 167.02430725 C12.59372725 169.67572042 11.95213972 171.32350852 10.6015625 173.59765625 C4.546875 173.79296875 4.546875 173.79296875 2.6015625 173.59765625 C-0.09725203 170.89884172 0.3511719 169.53006555 0.3500061 165.75436401 C0.34462326 164.50946701 0.33924042 163.26457001 0.33369446 161.98194885 C0.33770913 160.59457353 0.34188007 159.20719865 0.34619141 157.81982422 C0.34344253 156.36454573 0.33976326 154.90926874 0.33522034 153.45399475 C0.32709519 150.31481781 0.32494323 147.17571216 0.32716751 144.03652573 C0.32999674 139.06897905 0.31566165 134.10157508 0.29818726 129.13406372 C0.25112802 115.00639 0.22723047 100.87872513 0.22070312 86.75097656 C0.21694776 78.95221916 0.19887644 71.15362241 0.16560876 63.35493386 C0.14542375 58.42124975 0.14301078 53.48798088 0.15388894 48.55427241 C0.15650399 45.47599637 0.14245271 42.39795978 0.12380791 39.31974602 C0.11850399 37.89761289 0.11995183 36.47543515 0.12884331 35.05331993 C0.17827346 26.4496478 0.16237157 19.21731447 -6.21484375 12.7578125 C-6.79105469 12.39558594 -7.36726563 12.03335938 -7.9609375 11.66015625 C-8.53972656 11.27988281 -9.11851562 10.89960937 -9.71484375 10.5078125 C-18.52006208 5.74768287 -29.55491463 7.64782178 -35.81856102 15.34215093 Z " fill="#221E1F" transform="translate(238.3984375,109.40234375)"/>
<path d="M0 0 C20.98077149 20.41462369 31.67634192 48.32718971 33.16796875 77.2578125 C33.31215104 98.42377339 29.23841947 122.77971218 16 140 C12.31674006 141.11813248 10.17327297 141.45125884 6.5625 140.0625 C4.6455272 137.53209591 4.32608915 135.5606437 4.48046875 132.41015625 C5.34774551 128.38677457 7.41438014 125.01201902 9.33984375 121.40234375 C19.88352568 99.79399796 21.06849989 73.60620362 13.7109375 50.83203125 C4.65747008 24.69725351 -11.9215344 5.13299239 -36.328125 -7.7578125 C-60.10354952 -19.18609627 -87.20185139 -21.69496841 -112.29663086 -12.99902344 C-124.4520104 -8.4825278 -135.16109597 -2.47946997 -145 6 C-145.67417969 6.52980469 -146.34835938 7.05960938 -147.04296875 7.60546875 C-165.49597515 22.52256973 -175.74712418 46.71867032 -178.71875 69.77734375 C-180.43792027 89.47616979 -176.63927474 106.77508334 -168.80078125 124.75 C-167.70970142 127.81566821 -168.17178363 129.89418861 -169 133 C-171.430466 135.430466 -172.5989856 135.76271993 -176 136 C-179.89120523 134.7353583 -181.52938656 132.51295434 -183.4375 129.0625 C-196.65033232 100.29532077 -196.99481759 68.30362437 -186.25 38.75 C-181.48751505 26.3821648 -174.72371224 15.9855349 -166 6 C-165.4225 5.26652344 -164.845 4.53304687 -164.25 3.77734375 C-148.17726888 -15.99068047 -121.10261637 -29.06885617 -96 -32 C-94.55367187 -32.18175781 -94.55367187 -32.18175781 -93.078125 -32.3671875 C-57.9903655 -35.94578984 -25.52510685 -23.91565056 0 0 Z " fill="#221E1F" transform="translate(299,52)"/>
<path d="M0 0 C15.59695425 12.29306023 26.10458121 28.66727237 29.578125 48.3359375 C31.41197882 65.0629072 29.75380829 83.41924934 20.05859375 97.6640625 C17.96484375 99.86328125 17.96484375 99.86328125 15.9296875 100.4921875 C12.72947881 100.38736371 10.49262734 100.26311731 7.90234375 98.30078125 C5.76802832 92.75156114 8.2050716 88.09621691 10.40234375 82.92578125 C11.05009766 81.48912109 11.05009766 81.48912109 11.7109375 80.0234375 C17.25527044 66.05033673 16.21097158 50.77017631 10.96484375 36.86328125 C3.16992941 20.06180786 -8.96605016 10.16164739 -26.08984375 3.80859375 C-41.76063403 -1.22102329 -58.52881754 1.58836446 -72.90429688 8.90820312 C-86.86471401 16.46560645 -95.87751347 29.21670513 -100.37890625 44.2421875 C-103.98093973 58.62888074 -102.74691783 73.55750829 -96.03515625 86.86328125 C-95.58038859 90.50142256 -95.57038972 92.18400709 -97.66015625 95.23828125 C-100.71301546 97.32707966 -102.40483849 97.40396687 -106.03515625 96.86328125 C-114.0428813 90.57588588 -115.78765006 76.24375413 -117.03515625 66.86328125 C-118.76070307 45.44759052 -111.6272756 26.01793938 -97.91015625 9.73828125 C-72.53363118 -17.3586862 -30.11933017 -21.20369833 0 0 Z " fill="#221E1F" transform="translate(262.03515625,71.13671875)"/>
</svg>
